<svg width="520" height="408" viewBox="0 0 520 408" fill="none" xmlns="http://www.w3.org/2000/svg">
<rect width="520" height="408" fill="white"/>
<path d="M165.986 50.5653C165.918 49.8778 165.625 49.3437 165.108 48.9631C164.591 48.5824 163.889 48.392 163.003 48.392C162.401 48.392 161.892 48.4773 161.477 48.6477C161.063 48.8125 160.744 49.0426 160.523 49.3381C160.307 49.6335 160.199 49.9688 160.199 50.3438C160.188 50.6562 160.253 50.929 160.395 51.1619C160.543 51.3949 160.744 51.5966 161 51.767C161.256 51.9318 161.551 52.0767 161.886 52.2017C162.222 52.321 162.58 52.4233 162.96 52.5085L164.528 52.8835C165.29 53.054 165.989 53.2812 166.625 53.5653C167.261 53.8494 167.813 54.1989 168.278 54.6136C168.744 55.0284 169.105 55.517 169.361 56.0795C169.622 56.642 169.756 57.2869 169.761 58.0142C169.756 59.0824 169.483 60.0085 168.943 60.7926C168.409 61.571 167.636 62.1761 166.625 62.608C165.619 63.0341 164.406 63.2472 162.986 63.2472C161.577 63.2472 160.349 63.0312 159.304 62.5994C158.264 62.1676 157.452 61.5284 156.866 60.6818C156.287 59.8295 155.983 58.7756 155.955 57.5199H159.526C159.565 58.1051 159.733 58.5937 160.028 58.9858C160.33 59.3722 160.73 59.6648 161.23 59.8636C161.736 60.0568 162.307 60.1534 162.943 60.1534C163.568 60.1534 164.111 60.0625 164.571 59.8807C165.037 59.6989 165.398 59.446 165.653 59.1222C165.909 58.7983 166.037 58.4261 166.037 58.0057C166.037 57.6136 165.92 57.2841 165.688 57.017C165.46 56.75 165.125 56.5227 164.682 56.3352C164.244 56.1477 163.707 55.9773 163.071 55.8239L161.17 55.3466C159.699 54.9886 158.537 54.429 157.685 53.6676C156.832 52.9062 156.409 51.8807 156.415 50.5909C156.409 49.5341 156.69 48.6108 157.259 47.821C157.832 47.0312 158.619 46.4148 159.619 45.9716C160.619 45.5284 161.756 45.3068 163.028 45.3068C164.324 45.3068 165.455 45.5284 166.42 45.9716C167.392 46.4148 168.148 47.0312 168.688 47.821C169.227 48.6108 169.506 49.5256 169.523 50.5653H165.986ZM172.244 63V45.5455H175.934V52.7472H183.425V45.5455H187.107V63H183.425V55.7898H175.934V63H172.244ZM193.158 63H189.204L195.229 45.5455H199.985L206.002 63H202.048L197.675 49.5341H197.539L193.158 63ZM192.911 56.1392H202.252V59.0199H192.911V56.1392ZM208.103 63V45.5455H214.989C216.308 45.5455 217.433 45.7812 218.364 46.2528C219.302 46.7187 220.015 47.3807 220.504 48.2386C220.998 49.0909 221.245 50.0937 221.245 51.2472C221.245 52.4062 220.995 53.4034 220.495 54.2386C219.995 55.0682 219.271 55.7045 218.322 56.1477C217.379 56.5909 216.237 56.8125 214.896 56.8125H210.285V53.8466H214.299C215.004 53.8466 215.589 53.75 216.055 53.5568C216.521 53.3636 216.867 53.0739 217.094 52.6875C217.327 52.3011 217.444 51.821 217.444 51.2472C217.444 50.6676 217.327 50.179 217.094 49.7812C216.867 49.3835 216.518 49.0824 216.046 48.8778C215.58 48.6676 214.992 48.5625 214.282 48.5625H211.793V63H208.103ZM217.529 55.0568L221.867 63H217.793L213.549 55.0568H217.529ZM223.853 63V45.5455H235.614V48.5881H227.543V52.7472H235.009V55.7898H227.543V59.9574H235.648V63H223.853ZM244.736 63H238.548V45.5455H244.787C246.543 45.5455 248.054 45.8949 249.321 46.5938C250.588 47.2869 251.563 48.2841 252.244 49.5852C252.932 50.8864 253.276 52.4432 253.276 54.2557C253.276 56.0739 252.932 57.6364 252.244 58.9432C251.563 60.25 250.582 61.2528 249.304 61.9517C248.031 62.6506 246.509 63 244.736 63ZM242.239 59.8381H244.582C245.673 59.8381 246.591 59.6449 247.335 59.2585C248.085 58.8665 248.648 58.2614 249.023 57.4432C249.403 56.6193 249.594 55.5568 249.594 54.2557C249.594 52.9659 249.403 51.9119 249.023 51.0938C248.648 50.2756 248.088 49.6733 247.344 49.2869C246.599 48.9006 245.682 48.7074 244.591 48.7074H242.239V59.8381ZM261.564 45.5455H266.115L270.922 57.2727H271.126L275.933 45.5455H280.484V63H276.905V51.6392H276.76L272.243 62.9148H269.805L265.288 51.5966H265.143V63H261.564V45.5455ZM283.525 63V45.5455H295.286V48.5881H287.215V52.7472H294.681V55.7898H287.215V59.9574H295.32V63H283.525ZM298.22 45.5455H302.771L307.578 57.2727H307.783L312.589 45.5455H317.141V63H313.561V51.6392H313.416L308.899 62.9148H306.462L301.945 51.5966H301.8V63H298.22V45.5455ZM336.221 54.2727C336.221 56.1761 335.86 57.7955 335.138 59.1307C334.423 60.4659 333.445 61.4858 332.207 62.1903C330.974 62.8892 329.587 63.2386 328.048 63.2386C326.496 63.2386 325.104 62.8864 323.871 62.1818C322.638 61.4773 321.664 60.4574 320.948 59.1222C320.232 57.7869 319.874 56.1705 319.874 54.2727C319.874 52.3693 320.232 50.75 320.948 49.4148C321.664 48.0795 322.638 47.0625 323.871 46.3636C325.104 45.6591 326.496 45.3068 328.048 45.3068C329.587 45.3068 330.974 45.6591 332.207 46.3636C333.445 47.0625 334.423 48.0795 335.138 49.4148C335.86 50.75 336.221 52.3693 336.221 54.2727ZM332.479 54.2727C332.479 53.0398 332.295 52 331.925 51.1534C331.562 50.3068 331.048 49.6648 330.383 49.2273C329.718 48.7898 328.94 48.571 328.048 48.571C327.156 48.571 326.377 48.7898 325.712 49.2273C325.048 49.6648 324.531 50.3068 324.161 51.1534C323.798 52 323.616 53.0398 323.616 54.2727C323.616 55.5057 323.798 56.5455 324.161 57.392C324.531 58.2386 325.048 58.8807 325.712 59.3182C326.377 59.7557 327.156 59.9744 328.048 59.9744C328.94 59.9744 329.718 59.7557 330.383 59.3182C331.048 58.8807 331.562 58.2386 331.925 57.392C332.295 56.5455 332.479 55.5057 332.479 54.2727ZM338.955 63V45.5455H345.841C347.159 45.5455 348.284 45.7812 349.216 46.2528C350.153 46.7187 350.866 47.3807 351.355 48.2386C351.849 49.0909 352.097 50.0937 352.097 51.2472C352.097 52.4062 351.847 53.4034 351.347 54.2386C350.847 55.0682 350.122 55.7045 349.173 56.1477C348.23 56.5909 347.088 56.8125 345.747 56.8125H341.136V53.8466H345.151C345.855 53.8466 346.44 53.75 346.906 53.5568C347.372 53.3636 347.719 53.0739 347.946 52.6875C348.179 52.3011 348.295 51.821 348.295 51.2472C348.295 50.6676 348.179 50.179 347.946 49.7812C347.719 49.3835 347.369 49.0824 346.898 48.8778C346.432 48.6676 345.844 48.5625 345.134 48.5625H342.645V63H338.955ZM348.381 55.0568L352.719 63H348.645L344.401 55.0568H348.381ZM352.955 45.5455H357.089L361.069 53.0625H361.239L365.219 45.5455H369.353L362.987 56.8295V63H359.322V56.8295L352.955 45.5455Z" fill="black"/>
<rect x="40.5" y="98.5" width="439" height="269" fill="white" stroke="black"/>
<rect x="60.5" y="268.5" width="39" height="39" fill="white" stroke="black"/>
<rect x="100.5" y="268.5" width="39" height="39" fill="white" stroke="black"/>
<rect x="140.5" y="268.5" width="39" height="39" fill="white" stroke="black"/>
<rect x="180.5" y="268.5" width="39" height="39" fill="white" stroke="black"/>
<rect x="220.5" y="268.5" width="39" height="39" fill="white" stroke="black"/>
<rect x="260.5" y="268.5" width="39" height="39" fill="white" stroke="black"/>
<rect x="300.5" y="268.5" width="39" height="39" fill="white" stroke="black"/>
<rect x="340.5" y="268.5" width="39" height="39" fill="white" stroke="black"/>
<rect x="380.5" y="268.5" width="39" height="39" fill="white" stroke="black"/>
<rect x="420.5" y="268.5" width="39" height="39" fill="white" stroke="black"/>
<rect x="60.5" y="308.5" width="39" height="39" fill="white" stroke="black"/>
<rect x="100.5" y="308.5" width="39" height="39" fill="white" stroke="black"/>
<rect x="140.5" y="308.5" width="39" height="39" fill="white" stroke="black"/>
<rect x="180.5" y="308.5" width="39" height="39" fill="white" stroke="black"/>
<rect x="220.5" y="308.5" width="39" height="39" fill="white" stroke="black"/>
<rect x="260.5" y="308.5" width="39" height="39" fill="white" stroke="black"/>
<rect x="300.5" y="308.5" width="39" height="39" fill="white" stroke="black"/>
<rect x="340.5" y="308.5" width="39" height="39" fill="white" stroke="black"/>
<rect x="380.5" y="308.5" width="39" height="39" fill="white" stroke="black"/>
<rect x="420.5" y="308.5" width="39" height="39" fill="white" stroke="black"/>
<rect x="60.5" y="118.5" width="399" height="80" fill="white" stroke="black"/>
<path d="M190.446 167L185.452 149.545H189.483L192.372 161.673H192.517L195.705 149.545H199.156L202.335 161.699H202.489L205.378 149.545H209.409L204.415 167H200.818L197.494 155.588H197.358L194.043 167H190.446ZM212.635 167H208.68L214.706 149.545H219.462L225.479 167H221.524L217.152 153.534H217.016L212.635 167ZM212.388 160.139H221.729V163.02H212.388V160.139ZM227.58 167V149.545H231.27V163.957H238.753V167H227.58ZM246.751 167V149.545H253.74C255.024 149.545 256.095 149.736 256.953 150.116C257.811 150.497 258.456 151.026 258.888 151.702C259.32 152.372 259.536 153.145 259.536 154.02C259.536 154.702 259.399 155.301 259.126 155.818C258.854 156.33 258.479 156.75 258.001 157.08C257.53 157.403 256.99 157.634 256.382 157.77V157.94C257.047 157.969 257.669 158.156 258.249 158.503C258.834 158.849 259.308 159.335 259.672 159.96C260.036 160.58 260.217 161.318 260.217 162.176C260.217 163.102 259.987 163.929 259.527 164.656C259.072 165.378 258.399 165.949 257.507 166.369C256.615 166.79 255.516 167 254.209 167H246.751ZM250.442 163.983H253.45C254.479 163.983 255.229 163.787 255.7 163.395C256.172 162.997 256.408 162.469 256.408 161.81C256.408 161.327 256.291 160.901 256.058 160.531C255.825 160.162 255.493 159.872 255.061 159.662C254.635 159.452 254.126 159.347 253.536 159.347H250.442V163.983ZM250.442 156.849H253.178C253.683 156.849 254.132 156.761 254.524 156.585C254.922 156.403 255.234 156.148 255.462 155.818C255.695 155.489 255.811 155.094 255.811 154.634C255.811 154.003 255.587 153.494 255.138 153.108C254.695 152.722 254.064 152.528 253.246 152.528H250.442V156.849ZM273.4 149.545H277.09V160.881C277.09 162.153 276.786 163.267 276.178 164.222C275.576 165.176 274.732 165.92 273.647 166.455C272.562 166.983 271.298 167.247 269.854 167.247C268.406 167.247 267.138 166.983 266.053 166.455C264.968 165.92 264.124 165.176 263.522 164.222C262.92 163.267 262.619 162.153 262.619 160.881V149.545H266.309V160.565C266.309 161.23 266.454 161.821 266.744 162.338C267.039 162.855 267.454 163.261 267.988 163.557C268.522 163.852 269.144 164 269.854 164C270.57 164 271.192 163.852 271.721 163.557C272.255 163.261 272.667 162.855 272.957 162.338C273.252 161.821 273.4 161.23 273.4 160.565V149.545ZM280.126 167V149.545H291.683V152.588H283.817V156.747H290.916V159.79H283.817V167H280.126ZM294.165 167V149.545H305.722V152.588H297.856V156.747H304.955V159.79H297.856V167H294.165ZM308.205 167V149.545H319.966V152.588H311.895V156.747H319.361V159.79H311.895V163.957H320V167H308.205ZM322.9 167V149.545H329.786C331.104 149.545 332.229 149.781 333.161 150.253C334.099 150.719 334.812 151.381 335.3 152.239C335.795 153.091 336.042 154.094 336.042 155.247C336.042 156.406 335.792 157.403 335.292 158.239C334.792 159.068 334.067 159.705 333.119 160.148C332.175 160.591 331.033 160.812 329.692 160.812H325.082V157.847H329.096C329.8 157.847 330.386 157.75 330.852 157.557C331.317 157.364 331.664 157.074 331.891 156.688C332.124 156.301 332.241 155.821 332.241 155.247C332.241 154.668 332.124 154.179 331.891 153.781C331.664 153.384 331.315 153.082 330.843 152.878C330.377 152.668 329.789 152.562 329.079 152.562H326.59V167H322.9ZM332.326 159.057L336.664 167H332.59L328.346 159.057H332.326Z" fill="black"/>
<path d="M172.986 229.565C172.918 228.878 172.625 228.344 172.108 227.963C171.591 227.582 170.889 227.392 170.003 227.392C169.401 227.392 168.892 227.477 168.477 227.648C168.063 227.812 167.744 228.043 167.523 228.338C167.307 228.634 167.199 228.969 167.199 229.344C167.188 229.656 167.253 229.929 167.395 230.162C167.543 230.395 167.744 230.597 168 230.767C168.256 230.932 168.551 231.077 168.886 231.202C169.222 231.321 169.58 231.423 169.96 231.509L171.528 231.884C172.29 232.054 172.989 232.281 173.625 232.565C174.261 232.849 174.813 233.199 175.278 233.614C175.744 234.028 176.105 234.517 176.361 235.08C176.622 235.642 176.756 236.287 176.761 237.014C176.756 238.082 176.483 239.009 175.943 239.793C175.409 240.571 174.636 241.176 173.625 241.608C172.619 242.034 171.406 242.247 169.986 242.247C168.577 242.247 167.349 242.031 166.304 241.599C165.264 241.168 164.452 240.528 163.866 239.682C163.287 238.83 162.983 237.776 162.955 236.52H166.526C166.565 237.105 166.733 237.594 167.028 237.986C167.33 238.372 167.73 238.665 168.23 238.864C168.736 239.057 169.307 239.153 169.943 239.153C170.568 239.153 171.111 239.062 171.571 238.881C172.037 238.699 172.398 238.446 172.653 238.122C172.909 237.798 173.037 237.426 173.037 237.006C173.037 236.614 172.92 236.284 172.688 236.017C172.46 235.75 172.125 235.523 171.682 235.335C171.244 235.148 170.707 234.977 170.071 234.824L168.17 234.347C166.699 233.989 165.537 233.429 164.685 232.668C163.832 231.906 163.409 230.881 163.415 229.591C163.409 228.534 163.69 227.611 164.259 226.821C164.832 226.031 165.619 225.415 166.619 224.972C167.619 224.528 168.756 224.307 170.028 224.307C171.324 224.307 172.455 224.528 173.42 224.972C174.392 225.415 175.148 226.031 175.688 226.821C176.227 227.611 176.506 228.526 176.523 229.565H172.986ZM179.244 242V224.545H182.934V231.747H190.425V224.545H194.107V242H190.425V234.79H182.934V242H179.244ZM200.158 242H196.204L202.229 224.545H206.985L213.002 242H209.048L204.675 228.534H204.539L200.158 242ZM199.911 235.139H209.252V238.02H199.911V235.139ZM215.103 242V224.545H221.989C223.308 224.545 224.433 224.781 225.364 225.253C226.302 225.719 227.015 226.381 227.504 227.239C227.998 228.091 228.245 229.094 228.245 230.247C228.245 231.406 227.995 232.403 227.495 233.239C226.995 234.068 226.271 234.705 225.322 235.148C224.379 235.591 223.237 235.812 221.896 235.812H217.285V232.847H221.299C222.004 232.847 222.589 232.75 223.055 232.557C223.521 232.364 223.867 232.074 224.094 231.688C224.327 231.301 224.444 230.821 224.444 230.247C224.444 229.668 224.327 229.179 224.094 228.781C223.867 228.384 223.518 228.082 223.046 227.878C222.58 227.668 221.992 227.562 221.282 227.562H218.793V242H215.103ZM224.529 234.057L228.867 242H224.793L220.549 234.057H224.529ZM230.853 242V224.545H242.614V227.588H234.543V231.747H242.009V234.79H234.543V238.957H242.648V242H230.853ZM251.736 242H245.548V224.545H251.787C253.543 224.545 255.054 224.895 256.321 225.594C257.588 226.287 258.563 227.284 259.244 228.585C259.932 229.886 260.276 231.443 260.276 233.256C260.276 235.074 259.932 236.636 259.244 237.943C258.563 239.25 257.582 240.253 256.304 240.952C255.031 241.651 253.509 242 251.736 242ZM249.239 238.838H251.582C252.673 238.838 253.591 238.645 254.335 238.259C255.085 237.866 255.648 237.261 256.023 236.443C256.403 235.619 256.594 234.557 256.594 233.256C256.594 231.966 256.403 230.912 256.023 230.094C255.648 229.276 255.088 228.673 254.344 228.287C253.599 227.901 252.682 227.707 251.591 227.707H249.239V238.838ZM268.564 242V224.545H275.553C276.837 224.545 277.908 224.736 278.766 225.116C279.624 225.497 280.268 226.026 280.7 226.702C281.132 227.372 281.348 228.145 281.348 229.02C281.348 229.702 281.212 230.301 280.939 230.818C280.666 231.33 280.291 231.75 279.814 232.08C279.342 232.403 278.803 232.634 278.195 232.77V232.94C278.859 232.969 279.482 233.156 280.061 233.503C280.646 233.849 281.121 234.335 281.484 234.96C281.848 235.58 282.03 236.318 282.03 237.176C282.03 238.102 281.8 238.929 281.339 239.656C280.885 240.378 280.212 240.949 279.32 241.369C278.428 241.79 277.328 242 276.021 242H268.564ZM272.254 238.983H275.263C276.291 238.983 277.041 238.787 277.513 238.395C277.984 237.997 278.22 237.469 278.22 236.81C278.22 236.327 278.104 235.901 277.871 235.531C277.638 235.162 277.305 234.872 276.874 234.662C276.447 234.452 275.939 234.347 275.348 234.347H272.254V238.983ZM272.254 231.849H274.99C275.496 231.849 275.945 231.761 276.337 231.585C276.734 231.403 277.047 231.148 277.274 230.818C277.507 230.489 277.624 230.094 277.624 229.634C277.624 229.003 277.399 228.494 276.95 228.108C276.507 227.722 275.876 227.528 275.058 227.528H272.254V231.849ZM295.212 224.545H298.903V235.881C298.903 237.153 298.599 238.267 297.991 239.222C297.388 240.176 296.545 240.92 295.46 241.455C294.374 241.983 293.11 242.247 291.667 242.247C290.218 242.247 288.951 241.983 287.866 241.455C286.781 240.92 285.937 240.176 285.335 239.222C284.732 238.267 284.431 237.153 284.431 235.881V224.545H288.121V235.565C288.121 236.23 288.266 236.821 288.556 237.338C288.852 237.855 289.266 238.261 289.8 238.557C290.335 238.852 290.957 239 291.667 239C292.383 239 293.005 238.852 293.533 238.557C294.067 238.261 294.479 237.855 294.769 237.338C295.065 236.821 295.212 236.23 295.212 235.565V224.545ZM301.939 242V224.545H313.496V227.588H305.629V231.747H312.729V234.79H305.629V242H301.939ZM315.978 242V224.545H327.535V227.588H319.668V231.747H326.768V234.79H319.668V242H315.978ZM330.017 242V224.545H341.778V227.588H333.707V231.747H341.173V234.79H333.707V238.957H341.812V242H330.017ZM344.712 242V224.545H351.599C352.917 224.545 354.042 224.781 354.974 225.253C355.911 225.719 356.624 226.381 357.113 227.239C357.607 228.091 357.854 229.094 357.854 230.247C357.854 231.406 357.604 232.403 357.104 233.239C356.604 234.068 355.88 234.705 354.931 235.148C353.988 235.591 352.846 235.812 351.505 235.812H346.894V232.847H350.908C351.613 232.847 352.198 232.75 352.664 232.557C353.13 232.364 353.477 232.074 353.704 231.688C353.937 231.301 354.053 230.821 354.053 230.247C354.053 229.668 353.937 229.179 353.704 228.781C353.477 228.384 353.127 228.082 352.656 227.878C352.19 227.668 351.602 227.562 350.891 227.562H348.403V242H344.712ZM354.138 234.057L358.477 242H354.403L350.158 234.057H354.138Z" fill="black"/>
</svg>
